<?xml version="1.0" encoding="UTF-8"?>
<svg id="Layer_1" xmlns="http://www.w3.org/2000/svg" version="1.1" viewBox="0 0 200 200">
  <!-- Generator: Adobe Illustrator 29.0.1, SVG Export Plug-In . SVG Version: 2.1.0 Build 192)  -->
  <polygon points="160.79 83.95 161.36 87.52 130.9 92.31 106.7 78.88 98.68 91.29 100.55 111.39 115.19 123.49 112.89 126.28 98.33 114.24 77.96 118.05 74.32 131.71 79.78 140.32 76.72 142.25 71.5 134.01 39.32 140.16 38.64 136.61 70.92 130.44 75.05 114.92 96.86 110.83 95.15 92.32 78.65 88.8 65.54 97.97 63.46 95.01 77.88 84.93 95.97 88.81 104.06 76.28 96.93 59.13 100.27 57.75 107.52 75.2 131.56 88.55 160.79 83.95"/>
</svg>